<?xml version="1.0" encoding="UTF-8"?>
<svg id="Layer_1" data-name="Layer 1" xmlns="http://www.w3.org/2000/svg" viewBox="0 0 651.99 457.84">
  <defs>
    <style>
      .cls-1 {
        fill: #fff;
      }

      .cls-2 {
        fill: #231f20;
      }
    </style>
  </defs>
  <g>
    <path d="M325.97,191.76c-.26,0-.52,0-.78,0v32.77l-8.6,4.96-22.17,12.81-5.95,3.44-5.95-3.44-24.35-14.05-6.43-3.72v-42.41l8.62-4.98,14.9-8.6,4.93-2.85c-.24-.4-.48-.81-.71-1.23-.03-.04-.05-.08-.07-.12l-4.93,2.85-15.04,8.69-8.62,4.98-.28.16-.36.2v44.2l7.41,4.28,23.56,13.6,7.31,4.22,7.3-4.21,21.59-12.47,7.85-4.54.76-.43.78-.45v-33.66c-.26,0-.52,0-.78,0ZM325.97,191.76c-.26,0-.52,0-.78,0v22.82l.79-.46.76.44v-22.8c-.26,0-.52,0-.78,0Z"/>
    <path d="M401.12,180.84l-8.62-4.98-15.04-8.69-3.75-2.16-1.19-.69s-.04.08-.07.12c-.22.42-.47.83-.71,1.23l1.16.67,3.78,2.18,14.9,8.6,8.62,4.98v42.41l-6.52,3.77-24.25,14-5.95,3.44-5.95-3.44-22.14-12.78-8.64-4.99v-32.77c-.26,0-.52,0-.78,0s-.52,0-.78,0v33.66h.02s.76.45.76.45l.79.46,7.84,4.52,21.57,12.46,7.31,4.22,7.3-4.21,23.52-13.59,7.45-4.3v-44.2l-.64-.36Z"/>
    <path d="M431.96,112.19l-21.58-12.46-7.85-4.54-.78-.44-.78-.45-.39.22-.39.22-8.62,4.98-14.9,8.6-5,2.89c.26.44.53.89.78,1.34l5-2.89,14.89-8.6,8.63-4.98,8.63,4.98,21.57,12.46,6.53,3.77v42.41l-6.53,3.77-21.58,12.46-8.49,4.9-.14.08-8.62-4.98-13.71-7.92h-.02s-1.17-.68-1.17-.68l-3.82-2.2-1.19-.69c-.22.42-.47.83-.71,1.23-.02.04-.05.08-.07.12l4.86,2.81,1.34.78.05.03,13.64,7.87,8.62,4.98.78.45.78-.45.14-.09h0l8.48-4.89,21.93-12.65,6.96-4.02v-44.2l-7.31-4.22ZM372.45,164.45c-.22.42-.47.83-.71,1.23l1.16.67.74-1.21-1.19-.69ZM391.58,100.64v-.9l-14.9,8.6-5,2.89c.26.44.53.89.78,1.34l5-2.89,14.89-8.6-.77-.44Z"/>
    <path d="M325.98,62.92l-.79-.46v22.82c.26,0,.52,0,.78,0s.52,0,.78,0v-22.8l-.76.44ZM394.59,47.32l-23.82-13.76-7.3-4.21-7.31,4.22-21.71,12.53-7.7,4.44-.79.46-.76.44h-.02v33.83c.26,0,.52,0,.78,0s.52,0,.78,0v-32.93l8.64-4.99,21.56-12.45,6.53-3.77,6.52,3.77,23.68,13.67,6.52,3.77v42.41l-8.62,4.98-14.9,8.6-5,2.89c.26.44.53.89.78,1.34l5-2.89,14.89-8.6,8.63-4.98.78-.45v-44.19l-7.16-4.13Z"/>
    <path d="M279.49,164.45l-5,2.89-14.9,8.6.78.45v.74l14.9-8.6,4.93-2.85c-.24-.4-.48-.81-.71-1.23ZM274.13,109.47l.36.21v-.89l-.36.68ZM279.49,164.45l-5,2.89-14.9,8.6-8.62,4.98-.14-.08-8.49-4.9-21.67-12.51-6.44-3.72v-42.41l6.44-3.72,21.66-12.51,7.69-4.44.94-.54,8.63,4.98,14.47,8.36.05.03.36.21,5,2.89c.25-.45.51-.9.78-1.34l-5-2.89-.41-.23-14.49-8.37-8.62-4.98-.78-.45-.78.45-.19.11-1.58.92-6.85,3.96-21.62,12.49-7.26,4.19v44.2l7.22,4.17,21.66,12.5,7.77,4.49.85.49.67.39.11.06.78-.45,8.62-4.98,15.04-8.68,4.86-2.81s-.05-.08-.07-.12c-.24-.4-.48-.81-.71-1.23Z"/>
    <path d="M325.97,51.01l-.76-.43-7.71-4.46-21.73-12.55-7.3-4.21-7.31,4.22-23.81,13.75-7.16,4.13v44.19l.78.45,8.63,4.98,14.47,8.36.05.03.36.21,5,2.89c.25-.45.51-.9.78-1.34l-5-2.89-.41-.23-14.49-8.37-8.62-4.98v-42.41l6.52-3.77,23.67-13.67,6.53-3.77,6.52,3.77,21.6,12.47,8.6,4.96v32.93c.26,0,.52,0,.78,0s.52,0,.78,0v-33.82l-.78-.45ZM275.27,108.34l-.41-.23-14.49-8.37v.9l-.77.44,14.47,8.36.05.03.36-.68v.89l5,2.89c.25-.45.51-.9.78-1.34l-5-2.89Z"/>
    <path d="M339.94,87.14c-4.21-1.16-8.63-1.8-13.19-1.86-.26,0-.52,0-.78,0s-.52,0-.78,0c-4.56.06-8.98.71-13.19,1.86l13.19-7.62.78-.45.78.45,13.19,7.62Z"/>
    <path d="M339.94,189.89l-13.19,7.62-.78.45-.78-.45-13.19-7.62c4.21,1.16,8.63,1.8,13.19,1.86.26,0,.52,0,.78,0s.52,0,.78,0c4.56-.06,8.98-.71,13.19-1.86Z"/>
    <path d="M377.45,108.79v16.14c-1.15-4.36-2.84-8.51-5-12.36-.25-.45-.51-.9-.78-1.34-2.3-3.84-5.06-7.36-8.22-10.49l.02-.02,13.2,7.62.78.45Z"/>
    <path d="M288.49,100.74c-3.16,3.13-5.93,6.65-8.22,10.49-.26.44-.53.89-.78,1.34-2.16,3.85-3.85,8-5,12.36v-16.14l.78-.45,13.2-7.62.02.02Z"/>
    <path d="M377.45,152.08v15.99l-.78.45-.1.05-.04.02-12.77,7.38c3.02-3.06,5.69-6.47,7.91-10.18.02-.04.05-.08.07-.12.24-.4.48-.81.71-1.23.03-.04.05-.08.07-.12,2.13-3.82,3.8-7.93,4.93-12.25Z"/>
    <path d="M288.18,175.98l-12.77-7.38-.14-.08-.78-.45v-15.99c1.13,4.32,2.8,8.43,4.93,12.25.02.04.04.08.07.12.22.42.47.83.71,1.23.02.04.05.08.07.12,2.23,3.72,4.89,7.13,7.91,10.18Z"/>
    <g>
      <path class="cls-2" d="M319.55,160.64c-8.3-2.33-15.01-9.82-16.3-18.38-2.76-18.13,15.39-32.25,32.23-24.7.5.22,3.12,1.47,3.05,1.92l-5.79,8.59-.5.74c-5.93-3.78-13.95-1.46-16.79,4.98-4.51,10.17,6.44,20.23,16.17,14.83,1.74-.96,3.5-2.52,4.24-4.38h-13.57l7.49-11.4,9.99.02,8.47.02c4.37,17.27-11.49,32.61-28.7,27.77Z"/>
      <path class="cls-1" d="M377.45,124.93c-1.15-4.36-2.84-8.51-5-12.36-.25-.45-.51-.9-.78-1.34-2.3-3.84-5.06-7.36-8.22-10.49-6.44-6.39-14.5-11.15-23.51-13.6h0c-4.21-1.16-8.63-1.8-13.19-1.86-.26,0-.52,0-.78,0s-.52,0-.78,0c-4.56.06-8.98.71-13.19,1.86h0c-9,2.44-17.06,7.21-23.5,13.6-3.16,3.13-5.93,6.65-8.22,10.49-.26.44-.53.89-.78,1.34-2.16,3.85-3.85,8-5,12.36-1.15,4.34-1.76,8.89-1.76,13.58s.61,9.24,1.76,13.57c1.13,4.32,2.8,8.43,4.93,12.25.02.04.04.08.07.12.22.42.47.83.71,1.23.02.04.05.08.07.12,2.23,3.72,4.89,7.13,7.91,10.18,6.49,6.55,14.67,11.42,23.81,13.91h0c4.21,1.16,8.63,1.8,13.19,1.86.26,0,.52,0,.78,0s.52,0,.78,0c4.56-.06,8.98-.71,13.19-1.86h0c9.14-2.48,17.33-7.36,23.82-13.91,3.02-3.06,5.69-6.47,7.91-10.18.02-.04.05-.08.07-.12.24-.4.48-.81.71-1.23.03-.04.05-.08.07-.12,2.13-3.82,3.8-7.93,4.93-12.25,1.15-4.34,1.76-8.88,1.76-13.57s-.61-9.25-1.76-13.58ZM376.1,151.15c-1.1,4.38-2.77,8.55-4.92,12.4-.02.04-.05.09-.07.12-.22.41-.47.82-.71,1.23-.02.04-.05.08-.07.12-2.27,3.79-5.03,7.28-8.17,10.36-6.12,6.02-13.74,10.52-22.22,12.9-4.21,1.19-8.63,1.85-13.2,1.92-.26,0-.52,0-.78,0s-.52,0-.78,0c-4.57-.06-8.99-.73-13.2-1.92-8.49-2.38-16.09-6.88-22.21-12.9-3.14-3.09-5.89-6.57-8.17-10.36-.03-.04-.05-.08-.07-.12-.25-.4-.48-.81-.71-1.23-.02-.04-.05-.09-.06-.12-2.15-3.85-3.82-8.02-4.92-12.4-1.02-4.05-1.57-8.28-1.57-12.64s.56-8.69,1.6-12.78c1.12-4.37,2.79-8.53,4.96-12.38h0c.25-.46.5-.9.78-1.34,2.3-3.84,5.09-7.36,8.28-10.47,6.1-5.96,13.67-10.42,22.1-12.79,4.21-1.19,8.63-1.85,13.2-1.92.26,0,.52,0,.78,0s.52,0,.78,0c4.57.06,8.99.73,13.2,1.92,8.44,2.37,16.01,6.83,22.11,12.79,3.19,3.11,5.97,6.63,8.28,10.47.26.44.53.89.78,1.34,2.16,3.85,3.83,8,4.96,12.38,1.04,4.09,1.6,8.37,1.6,12.78s-.54,8.59-1.57,12.64Z"/>
      <path d="M376.06,125.73c-1.12-4.37-2.8-8.53-4.96-12.38-.25-.45-.51-.9-.78-1.34-2.3-3.84-5.09-7.36-8.28-10.47-6.1-5.96-13.67-10.42-22.11-12.79-4.21-1.19-8.63-1.85-13.2-1.92-.26,0-.52,0-.78,0s-.52,0-.78,0c-4.57.06-8.99.73-13.2,1.92-8.43,2.37-16,6.83-22.1,12.79-3.19,3.11-5.97,6.63-8.28,10.47-.27.44-.53.88-.78,1.33h0c-2.16,3.85-3.84,8.01-4.96,12.39-1.04,4.09-1.6,8.37-1.6,12.78s.54,8.59,1.57,12.64c1.1,4.38,2.77,8.55,4.92,12.4.02.04.04.09.06.12.23.41.47.82.71,1.23.02.04.04.08.07.12,2.27,3.79,5.03,7.28,8.17,10.36,6.12,6.02,13.73,10.52,22.21,12.9,4.21,1.19,8.63,1.85,13.2,1.92.26,0,.52,0,.78,0s.52,0,.78,0c4.57-.06,8.99-.73,13.2-1.92,8.49-2.38,16.1-6.88,22.22-12.9,3.14-3.09,5.89-6.57,8.17-10.36.02-.04.05-.08.07-.12.24-.4.48-.81.71-1.23.02-.04.05-.09.07-.12,2.15-3.85,3.82-8.02,4.92-12.4,1.02-4.05,1.57-8.28,1.57-12.64s-.56-8.69-1.6-12.78ZM319.55,160.64c-8.3-2.33-15.01-9.82-16.3-18.38-2.76-18.13,15.39-32.25,32.23-24.7.5.22,3.12,1.47,3.05,1.92l-5.79,8.59-.5.74c-5.93-3.78-13.95-1.46-16.79,4.98-4.51,10.17,6.44,20.23,16.17,14.83,1.74-.96,3.5-2.52,4.24-4.38h-13.57l7.49-11.4,9.99.02,8.47.02c4.37,17.27-11.49,32.61-28.7,27.77Z"/>
    </g>
    <path class="cls-1" d="M319.55,160.64c-8.3-2.33-15.01-9.82-16.3-18.38-2.76-18.13,15.39-32.25,32.23-24.7.5.22,3.12,1.47,3.05,1.92l-5.79,8.59-.5.74c-5.93-3.78-13.95-1.46-16.79,4.98-4.51,10.17,6.44,20.23,16.17,14.83,1.74-.96,3.5-2.52,4.24-4.38h-13.57l7.49-11.4,9.99.02,8.47.02c4.37,17.27-11.49,32.61-28.7,27.77Z"/>
    <polygon points="335.39 57.49 335.39 46.64 325.99 41.21 316.59 46.64 316.59 57.49 325.99 62.92 335.39 57.49"/>
    <polygon points="333.29 12.65 333.29 4.22 325.99 0 318.68 4.22 318.68 12.65 325.99 16.86 333.29 12.65"/>
    <polygon points="445.78 77.77 445.78 69.34 438.48 65.12 431.18 69.34 431.18 77.77 438.48 81.99 445.78 77.77"/>
    <polygon points="445.78 209.57 445.78 201.14 438.48 196.92 431.18 201.14 431.18 209.57 438.48 213.79 445.78 209.57"/>
    <polygon points="220.82 209.57 220.82 201.14 213.52 196.92 206.22 201.14 206.22 209.57 213.52 213.79 220.82 209.57"/>
    <polygon points="220.82 80.54 220.82 72.11 213.52 67.89 206.22 72.11 206.22 80.54 213.52 84.76 220.82 80.54"/>
    <polygon points="333.29 272.65 333.29 264.22 325.99 260 318.68 264.22 318.68 272.65 325.99 276.87 333.29 272.65"/>
    <polygon points="370.78 34.46 370.78 26.03 363.47 21.82 356.17 26.03 356.17 34.46 363.47 38.68 370.78 34.46"/>
    <polygon points="408.28 56.28 408.28 47.85 400.98 43.63 393.68 47.85 393.68 56.28 400.98 60.5 408.28 56.28"/>
    <polygon points="408.28 229.36 408.28 220.93 400.98 216.71 393.68 220.93 393.68 229.36 400.98 233.57 408.28 229.36"/>
    <polygon points="258.17 229.36 258.17 220.93 250.87 216.71 243.57 220.93 243.57 229.36 250.87 233.57 258.17 229.36"/>
    <polygon points="295.77 34.46 295.77 26.03 288.47 21.82 281.16 26.03 281.16 34.46 288.47 38.68 295.77 34.46"/>
    <polygon points="370.78 251.5 370.78 243.07 363.47 238.86 356.17 243.07 356.17 251.5 363.47 255.72 370.78 251.5"/>
    <polygon points="295.77 251.5 295.77 243.07 288.47 238.86 281.16 243.07 281.16 251.5 288.47 255.72 295.77 251.5"/>
    <polygon points="258.27 56.28 258.27 47.85 250.96 43.63 243.66 47.85 243.66 56.28 250.96 60.5 258.27 56.28"/>
    <polygon points="220.67 121.08 220.67 112.64 213.37 108.43 206.07 112.64 206.07 121.08 213.37 125.29 220.67 121.08"/>
    <polygon points="445.78 121.08 445.78 112.64 438.48 108.43 431.18 112.64 431.18 121.08 438.48 125.29 445.78 121.08"/>
    <polygon points="445.78 163.98 445.78 155.55 438.48 151.33 431.18 155.55 431.18 163.98 438.48 168.2 445.78 163.98"/>
    <polygon points="220.67 164.34 220.67 155.91 213.37 151.69 206.07 155.91 206.07 164.34 213.37 168.56 220.67 164.34"/>
    <polygon points="335.39 230.39 335.39 219.54 325.99 214.11 316.59 219.54 316.59 230.39 325.99 235.82 335.39 230.39"/>
    <polygon points="410.38 100.64 410.38 89.78 400.98 84.35 391.58 89.78 391.58 100.64 400.98 106.06 410.38 100.64"/>
    <polygon points="410.38 187.25 410.38 176.39 400.98 170.97 391.58 176.39 391.58 187.25 400.98 192.67 410.38 187.25"/>
    <polygon points="260.36 187.25 260.36 176.39 250.96 170.97 241.56 176.39 241.56 187.25 250.96 192.67 260.36 187.25"/>
    <polygon points="260.36 100.64 260.36 89.78 250.96 84.35 241.56 89.78 241.56 100.64 250.96 106.06 260.36 100.64"/>
    <rect x="325.21" y="8.43" width="1.55" height="43.63"/>
    <rect x="325.21" y="224.8" width="1.55" height="43.63"/>
    <rect x="398.08" y="83.6" width="43.3" height="1.55" transform="translate(14.03 221.13) rotate(-29.99)"/>
    <rect x="405.12" y="147.37" width="1.55" height="76.3" transform="translate(36.37 435.76) rotate(-58.67)"/>
    <rect x="210.09" y="192.73" width="44.31" height="1.55" transform="translate(-67.49 154.21) rotate(-32.33)"/>
    <rect x="243.23" y="58.02" width="1.55" height="69.07" transform="translate(47.63 264.43) rotate(-61.97)"/>
  </g>
  <g>
    <path d="M35.7,364.26h36.35v27.74c0,2.96-.57,5.74-1.71,8.36-1.14,2.62-3.07,4.96-5.79,7.01-2.72,2.05-6.41,3.67-11.08,4.86-4.67,1.19-10.49,1.79-17.44,1.79s-12.77-.6-17.44-1.79c-4.67-1.19-8.37-2.81-11.08-4.86-2.72-2.05-4.65-4.38-5.79-7.01-1.14-2.62-1.71-5.41-1.71-8.36v-55.48c0-2.95.57-5.74,1.71-8.36,1.14-2.62,3.07-4.96,5.79-7.01,2.72-2.05,6.41-3.67,11.08-4.86,4.67-1.19,10.49-1.79,17.44-1.79s12.77.6,17.44,1.79c4.67,1.19,8.37,2.81,11.08,4.86,2.71,2.05,4.65,4.39,5.79,7.01,1.14,2.62,1.71,5.41,1.71,8.36v7.58h-15.49v-5.29c0-1.91-.38-3.62-1.14-5.15-.76-1.52-1.96-2.83-3.59-3.93-1.63-1.09-3.72-1.93-6.28-2.5-2.55-.57-5.68-.86-9.37-.86s-6.82.29-9.37.86c-2.55.57-4.62,1.41-6.19,2.5-1.58,1.1-2.75,2.41-3.5,3.93-.76,1.53-1.14,3.24-1.14,5.15v50.9c0,1.91.38,3.62,1.14,5.15.76,1.53,1.93,2.84,3.5,3.93,1.57,1.1,3.64,1.93,6.19,2.5,2.55.57,5.68.86,9.37.86s6.68-.29,9.29-.86c2.61-.57,4.73-1.38,6.36-2.43,1.63-1.05,2.82-2.33,3.59-3.86.76-1.52,1.14-3.24,1.14-5.15v-13.73h-20.86v-11.87Z"/>
    <path d="M129.58,340.81v12.15h-2.61c-3.7,0-7.28.57-10.76,1.72-3.48,1.14-6.55,2.43-9.21,3.86-2.66,1.43-4.65,2.62-5.95,3.57v50.76h-15.48v-70.92h14.67l.65,8.86c2.5-2.1,5.08-3.88,7.74-5.36,2.66-1.48,5.54-2.62,8.64-3.43,3.1-.81,6.65-1.22,10.68-1.22h1.63Z"/>
    <path d="M179.46,412.87l-.49-7.01c-1.52,1.05-3.5,2.22-5.95,3.5-2.44,1.29-5.33,2.38-8.64,3.29-3.32.91-7.04,1.36-11.17,1.36-5,0-9.21-.79-12.63-2.36-3.42-1.57-6.01-3.67-7.74-6.29-1.74-2.62-2.61-5.5-2.61-8.65v-6.86c0-3.15.84-6.03,2.53-8.65,1.68-2.62,4.21-4.72,7.58-6.29,3.37-1.57,7.55-2.36,12.55-2.36h25.75v-11.01c0-2-.46-3.72-1.39-5.15-.92-1.43-2.53-2.55-4.81-3.36-2.28-.81-5.49-1.22-9.62-1.22s-7.36.36-9.7,1.07c-2.34.71-3.99,1.79-4.97,3.22s-1.47,3.1-1.47,5v2.57h-14.51v-3.58c0-3.81,1-7.17,3.02-10.08,2.01-2.91,5.3-5.17,9.86-6.79,4.56-1.62,10.54-2.43,17.93-2.43s13.66.81,18.17,2.43c4.51,1.62,7.74,3.89,9.7,6.79,1.96,2.91,2.93,6.27,2.93,10.08v52.76h-14.34ZM166.26,401.43c2.82-.86,5.27-1.86,7.33-3,2.06-1.14,3.75-2.14,5.05-3v-12.3h-22.49c-4.13,0-6.96.76-8.48,2.29-1.52,1.53-2.28,3.67-2.28,6.43v2.86c0,1.81.41,3.31,1.22,4.5.81,1.19,2.09,2.07,3.83,2.65,1.74.57,3.97.86,6.68.86,3.26,0,6.3-.43,9.13-1.29Z"/>
    <path d="M240.59,412.87h-15.32l-27.22-70.92h16.3l19.23,52.04,20.05-52.04h15.16l-28.2,70.92Z"/>
    <path d="M289.33,331.37h-15.48v-18.44h15.48v18.44ZM289.33,412.87h-15.48v-70.92h15.48v70.92Z"/>
    <path d="M376.04,381.7v10.29c0,2.96-.57,5.74-1.71,8.36-1.14,2.62-3.07,4.96-5.79,7.01-2.72,2.05-6.41,3.67-11.08,4.86-4.67,1.19-10.49,1.79-17.44,1.79s-12.77-.6-17.44-1.79c-4.67-1.19-8.37-2.81-11.08-4.86-2.72-2.05-4.65-4.38-5.79-7.01-1.14-2.62-1.71-5.41-1.71-8.36v-55.48c0-2.95.57-5.74,1.71-8.36,1.14-2.62,3.07-4.96,5.79-7.01,2.72-2.05,6.41-3.67,11.08-4.86,4.67-1.19,10.49-1.79,17.44-1.79s12.77.6,17.44,1.79c4.67,1.19,8.37,2.81,11.08,4.86,2.71,2.05,4.65,4.39,5.79,7.01,1.14,2.62,1.71,5.41,1.71,8.36v8.44h-15.49v-6.15c0-1.91-.38-3.62-1.14-5.15-.76-1.52-1.96-2.83-3.59-3.93-1.63-1.09-3.72-1.93-6.28-2.5-2.55-.57-5.68-.86-9.37-.86s-6.82.29-9.37.86c-2.55.57-4.62,1.41-6.19,2.5-1.58,1.1-2.75,2.41-3.5,3.93-.76,1.53-1.14,3.24-1.14,5.15v50.9c0,1.91.38,3.62,1.14,5.15.76,1.53,1.93,2.84,3.5,3.93,1.57,1.1,3.64,1.93,6.19,2.5,2.55.57,5.68.86,9.37.86s6.82-.29,9.37-.86c2.55-.57,4.65-1.41,6.28-2.5,1.63-1.09,2.82-2.41,3.59-3.93.76-1.52,1.14-3.24,1.14-5.15v-8.01h15.49Z"/>
    <path d="M402.12,312.93v35.89c1.52-1.14,3.53-2.33,6.03-3.58,2.5-1.24,5.49-2.29,8.96-3.15,3.48-.86,7.39-1.29,11.74-1.29,5,0,9.21.79,12.63,2.36,3.42,1.57,6,3.74,7.74,6.51,1.74,2.77,2.61,5.91,2.61,9.44v53.76h-15.49v-50.47c0-2-.38-3.69-1.14-5.08-.76-1.38-2.01-2.45-3.75-3.22-1.74-.76-4.13-1.14-7.17-1.14-2.61,0-5.05.26-7.33.79-2.28.52-4.38,1.17-6.28,1.93-1.9.76-3.59,1.57-5.05,2.43-1.47.86-2.64,1.57-3.5,2.15v52.62h-15.49v-99.94h15.49Z"/>
    <path d="M526.81,380.41h-47.11v13.15c0,1.43.25,2.74.73,3.93.49,1.19,1.33,2.22,2.53,3.07,1.19.86,2.85,1.5,4.97,1.93,2.12.43,4.81.64,8.07.64s5.95-.21,8.07-.64,3.77-1.07,4.97-1.93c1.19-.86,2.04-1.88,2.53-3.07.49-1.19.73-2.5.73-3.93v-2.86h14.51v3.72c0,2.96-.54,5.62-1.63,8.01-1.09,2.38-2.85,4.43-5.3,6.15-2.44,1.72-5.65,3.05-9.62,4-3.97.95-8.83,1.43-14.59,1.43s-10.62-.48-14.59-1.43c-3.97-.95-7.17-2.29-9.62-4-2.44-1.72-4.21-3.76-5.3-6.15-1.09-2.38-1.63-5.05-1.63-8.01v-34.03c0-3.91,1-7.34,3.01-10.29,2.01-2.95,5.32-5.24,9.94-6.86,4.62-1.62,10.78-2.43,18.5-2.43,5.76,0,10.59.48,14.51,1.43,3.91.95,7.06,2.29,9.45,4,2.39,1.72,4.13,3.77,5.22,6.15,1.08,2.38,1.63,5.05,1.63,8.01v20.02ZM479.7,370.26h32.6v-9.01c0-1.43-.27-2.74-.82-3.93-.54-1.19-1.44-2.19-2.69-3-1.25-.81-2.93-1.45-5.05-1.93-2.12-.48-4.7-.71-7.74-.71-4.13,0-7.39.41-9.78,1.21-2.39.81-4.08,1.93-5.05,3.36-.98,1.43-1.47,3.1-1.47,5v9.01Z"/>
    <path d="M538.87,341.95h14.67l.33,7.15c1.41-1.14,3.31-2.36,5.71-3.65,2.39-1.29,5.27-2.38,8.64-3.29,3.37-.9,7.33-1.36,11.9-1.36,5.32,0,9.72.88,13.2,2.65,3.48,1.76,6.03,4.12,7.66,7.08,1.3-.95,3.15-2.22,5.54-3.79,2.39-1.57,5.43-2.95,9.13-4.15,3.69-1.19,8.09-1.79,13.2-1.79s9.37.79,12.8,2.36c3.42,1.57,6,3.74,7.74,6.51,1.74,2.77,2.61,5.91,2.61,9.44v53.76h-15.65v-50.47c0-2-.38-3.69-1.14-5.08-.76-1.38-2.04-2.45-3.83-3.22-1.79-.76-4.16-1.14-7.09-1.14-3.59,0-6.76.45-9.54,1.36-2.77.91-5.16,1.93-7.17,3.07-2.01,1.14-3.5,2.15-4.48,3v52.47h-15.48v-50.47c0-2-.38-3.69-1.14-5.08-.76-1.38-2.01-2.45-3.75-3.22-1.74-.76-4.13-1.14-7.17-1.14-2.61,0-5.03.26-7.25.79-2.23.52-4.24,1.17-6.03,1.93-1.79.76-3.34,1.57-4.65,2.43-1.3.86-2.39,1.57-3.26,2.15v52.62h-15.49v-70.92Z"/>
  </g>
  <g>
    <path d="M68.2,435.29h3.93v22.22h-3.93v-22.22ZM86.42,444.6v3.12h-14.86v-3.12h14.86ZM85.85,457.5v-22.22h3.93v22.22h-3.93Z"/>
    <path d="M96.66,435.29h3.93v22.22h-3.93v-22.22Z"/>
    <path d="M131.27,445.91c0,1.09-.13,2.16-.38,3.18-.25,1.03-.61,1.98-1.07,2.87-.46.88-1.03,1.69-1.72,2.41s-1.49,1.35-2.41,1.86c-.92.51-1.94.91-3.06,1.19s-2.34.42-3.67.42c-1.89,0-3.63-.29-5.23-.85-1.6-.57-2.99-1.36-4.14-2.38-1.16-1.02-2.07-2.23-2.73-3.64-.66-1.41-.99-2.94-.99-4.59s.32-3.17.97-4.56c.65-1.38,1.56-2.59,2.73-3.62,1.17-1.03,2.55-1.83,4.14-2.4,1.59-.57,3.33-.85,5.21-.85,1.55,0,3.02.18,4.41.55,1.39.37,2.63.9,3.72,1.59,1.09.69,2.02,1.52,2.77,2.48.75.96,1.27,2.04,1.55,3.25h-4.13c-.25-.71-.64-1.36-1.17-1.93-.52-.57-1.14-1.05-1.85-1.44-.71-.39-1.51-.69-2.39-.9-.88-.21-1.8-.32-2.77-.32-1.32,0-2.55.2-3.67.6-1.12.4-2.08.96-2.88,1.68s-1.43,1.58-1.89,2.58c-.46,1.01-.69,2.1-.69,3.28,0,1.41.26,2.62.78,3.64.52,1.02,1.2,1.86,2.04,2.53.84.67,1.81,1.17,2.9,1.49,1.09.32,2.22.49,3.36.49,1.04,0,2.08-.13,3.09-.4,1.02-.27,1.94-.66,2.77-1.17.83-.51,1.53-1.16,2.1-1.93.57-.77.94-1.66,1.09-2.66l.34.4h-10.01v-2.85h12.84ZM127.87,445.91h3.55v11.59h-2.86l-.69-11.59Z"/>
    <path d="M137.72,435.29h3.93v22.22h-3.93v-22.22ZM155.95,444.6v3.12h-14.86v-3.12h14.86ZM155.37,457.5v-22.22h3.93v22.22h-3.93Z"/>
    <path d="M166.18,435.29h3.93v19.5l-.46-.4h14.36v3.12h-17.84v-22.22Z"/>
    <path d="M181.39,435.29h4.55l7.26,10.46h-.46l7.22-10.46h4.55l-11.54,16.45-11.57-16.45ZM191.01,448.45h3.9v9.05h-3.9v-9.05Z"/>
    <path d="M216.3,435.29h11.35c1.22,0,2.36.18,3.42.55,1.06.37,1.97.88,2.75,1.53.78.65,1.39,1.41,1.83,2.29.45.88.67,1.85.67,2.9s-.22,1.99-.65,2.88c-.43.89-1.04,1.67-1.81,2.31-.78.65-1.69,1.16-2.75,1.52-1.06.37-2.21.55-3.46.55h-7.98v-3.08h7.45c1.53,0,2.76-.39,3.71-1.17.94-.78,1.41-1.78,1.41-2.98s-.47-2.21-1.41-3c-.94-.79-2.18-1.19-3.71-1.19h-7.33l.46-.4v19.5h-3.93v-22.22Z"/>
    <path d="M240.75,435.29h3.86v14.04c0,.8.16,1.54.48,2.2.32.66.78,1.22,1.38,1.69.6.47,1.31.83,2.14,1.07.83.25,1.75.37,2.77.37s1.98-.12,2.81-.37c.83-.25,1.53-.6,2.12-1.07.59-.47,1.04-1.03,1.36-1.69.32-.66.48-1.39.48-2.2v-14.04h3.9v14.17c0,1.27-.25,2.42-.74,3.45-.5,1.03-1.21,1.91-2.14,2.65s-2.05,1.3-3.36,1.69c-1.31.39-2.78.59-4.41.59s-3.1-.2-4.41-.59c-1.31-.39-2.43-.96-3.34-1.69s-1.62-1.62-2.12-2.65c-.5-1.03-.75-2.18-.75-3.45v-14.17Z"/>
    <path d="M268.64,435.29h11.46c1.22,0,2.36.18,3.42.54s1.97.85,2.75,1.49,1.39,1.4,1.83,2.28c.45.88.67,1.84.67,2.87s-.22,1.98-.65,2.85c-.43.87-1.04,1.62-1.81,2.26-.78.64-1.69,1.14-2.75,1.51-1.06.37-2.21.55-3.46.55h-8.1v-3.05h7.56c.76,0,1.46-.1,2.08-.3.62-.2,1.16-.49,1.6-.85.45-.37.8-.8,1.05-1.31.25-.5.38-1.04.38-1.62,0-.65-.14-1.22-.42-1.73-.28-.5-.66-.93-1.13-1.29-.47-.36-1.01-.62-1.62-.8s-1.26-.27-1.95-.27h-7.45l.46-.4v19.5h-3.93v-22.22ZM278.76,449.16l4.13-.57,5.92,8.91h-4.58l-5.46-8.34Z"/>
    <path d="M294.12,435.29h3.93v22.22h-3.93v-22.22Z"/>
    <path d="M304.93,435.29h17.57v3.12h-14.1l.46-.4v19.5h-3.93v-22.22ZM319.56,444.6v3.12h-11.27v-3.12h11.27Z"/>
    <path d="M327.2,435.29h3.93v22.22h-3.93v-22.22Z"/>
    <path d="M355.62,454.39v3.12h-17.61v-22.22h17.19v3.12h-13.71l.46-.4v16.79l-.46-.4h14.13ZM353.98,444.53v3.12h-12.61v-3.12h12.61Z"/>
    <path d="M360.97,435.29h10.81c1.88,0,3.58.28,5.1.84,1.52.56,2.8,1.33,3.86,2.33s1.87,2.17,2.45,3.54.86,2.84.86,4.42-.29,3.06-.86,4.41c-.57,1.35-1.39,2.53-2.45,3.52-1.06,1-2.34,1.77-3.86,2.33-1.51.56-3.21.84-5.1.84h-10.81v-22.22ZM371.74,454.39c1.35,0,2.53-.21,3.55-.62,1.02-.41,1.87-.98,2.56-1.69.69-.71,1.2-1.56,1.55-2.53.34-.97.52-2.02.52-3.13s-.17-2.17-.52-3.15-.86-1.84-1.55-2.56-1.54-1.3-2.56-1.71-2.2-.62-3.55-.62h-7.3l.46-.4v16.82l-.46-.4h7.3Z"/>
    <path d="M422.28,445.91c0,1.09-.13,2.16-.38,3.18-.25,1.03-.61,1.98-1.07,2.87-.46.88-1.03,1.69-1.72,2.41-.69.73-1.49,1.35-2.41,1.86-.92.51-1.94.91-3.06,1.19-1.12.28-2.34.42-3.67.42-1.88,0-3.63-.29-5.23-.85s-2.99-1.36-4.14-2.38c-1.16-1.02-2.07-2.23-2.73-3.64s-.99-2.94-.99-4.59.33-3.17.97-4.56c.65-1.38,1.56-2.59,2.73-3.62,1.17-1.03,2.55-1.83,4.15-2.4,1.59-.57,3.33-.85,5.21-.85,1.55,0,3.02.18,4.41.55,1.39.37,2.63.9,3.72,1.59s2.02,1.52,2.77,2.48c.75.96,1.27,2.04,1.55,3.25h-4.13c-.25-.71-.64-1.36-1.17-1.93-.52-.57-1.14-1.05-1.85-1.44-.71-.39-1.51-.69-2.39-.9-.88-.21-1.8-.32-2.77-.32-1.33,0-2.55.2-3.67.6-1.12.4-2.08.96-2.88,1.68-.8.71-1.43,1.58-1.89,2.58-.46,1.01-.69,2.1-.69,3.28,0,1.41.26,2.62.78,3.64.52,1.02,1.2,1.86,2.04,2.53.84.67,1.81,1.17,2.9,1.49,1.09.32,2.22.49,3.36.49,1.04,0,2.08-.13,3.09-.4,1.02-.27,1.94-.66,2.77-1.17.83-.51,1.53-1.16,2.1-1.93.57-.77.94-1.66,1.09-2.66l.34.4h-10.01v-2.85h12.83ZM418.88,445.91h3.55v11.59h-2.87l-.69-11.59Z"/>
    <path d="M428.73,435.29h11.46c1.22,0,2.36.18,3.42.54s1.97.85,2.75,1.49c.78.64,1.39,1.4,1.83,2.28.45.88.67,1.84.67,2.87s-.22,1.98-.65,2.85c-.43.87-1.04,1.62-1.81,2.26-.78.64-1.69,1.14-2.75,1.51-1.06.37-2.21.55-3.46.55h-8.1v-3.05h7.56c.76,0,1.46-.1,2.08-.3s1.16-.49,1.6-.85.8-.8,1.05-1.31c.25-.5.38-1.04.38-1.62,0-.65-.14-1.22-.42-1.73-.28-.5-.66-.93-1.13-1.29-.47-.36-1.01-.62-1.62-.8-.61-.18-1.26-.27-1.95-.27h-7.45l.46-.4v19.5h-3.93v-22.22ZM438.86,449.16l4.13-.57,5.92,8.91h-4.58l-5.46-8.34Z"/>
    <path d="M461.66,435.29h4.28l10.66,22.22h-4.2l-2.37-5.23.61.37h-13.71l.61-.37-2.29,5.23h-4.2l10.62-22.22ZM458.15,449.76h11.35l-.27.37-5.62-11.36h.38l-5.58,11.36-.27-.37Z"/>
    <path d="M480.5,435.29h11.35c1.22,0,2.36.18,3.42.55,1.06.37,1.97.88,2.75,1.53.78.65,1.39,1.41,1.83,2.29.45.88.67,1.85.67,2.9s-.22,1.99-.65,2.88c-.43.89-1.04,1.67-1.82,2.31-.78.65-1.69,1.16-2.75,1.52s-2.21.55-3.46.55h-7.98v-3.08h7.45c1.53,0,2.76-.39,3.71-1.17.94-.78,1.41-1.78,1.41-2.98s-.47-2.21-1.41-3c-.94-.79-2.18-1.19-3.71-1.19h-7.33l.46-.4v19.5h-3.93v-22.22Z"/>
    <path d="M505.21,435.29h3.93v22.22h-3.93v-22.22ZM523.43,444.6v3.12h-14.86v-3.12h14.86ZM522.86,457.5v-22.22h3.93v22.22h-3.93Z"/>
    <path d="M533.67,435.29h3.93v22.22h-3.93v-22.22Z"/>
    <path d="M542.04,435.29h20.59v3.22h-20.59v-3.22ZM550.36,438h3.9v19.5h-3.9v-19.5Z"/>
    <path d="M584.67,454.39v3.12h-17.61v-22.22h17.19v3.12h-13.71l.46-.4v16.79l-.46-.4h14.13ZM583.02,444.53v3.12h-12.61v-3.12h12.61Z"/>
  </g>
</svg>